<?xml version="1.0" encoding="UTF-8"?>
<svg id="Layer_1" xmlns="http://www.w3.org/2000/svg" width="82.67" height="128" viewBox="0 0 82.67 128">
  <g id="balloon-pink">
    <path d="M26.14,15.22s-15.42,4.84-10,23.87c5.43,19.02,20.56,13.65,20.56,13.65,0,0,12.69-6.48,7.65-24.35-5.03-17.87-18.22-13.18-18.22-13.18ZM36.33,51.95l-.28.08c-2.37.67-14.41,3.16-19.06-13.17-5.12-17.96,8.83-22.61,9.41-22.8l.31-.09c2.05-.58,12.5-2.69,16.82,12.66,4.69,16.67-6.37,22.88-7.19,23.31Z"/>
    <path d="M43.52,28.64c4.69,16.67-6.37,22.88-7.19,23.31l-.28.08c-2.37.67-14.41,3.16-19.06-13.17-5.12-17.96,8.83-22.61,9.41-22.8l.31-.09c2.05-.58,12.5-2.69,16.82,12.66Z" fill="#f393bd"/>
    <path d="M36.84,55.47c-.92-2.15-1.82-2.3-1.82-2.3l-2.25.23s-3.02,3.61-1.9,4.14c1.12.52,3,1.5,4.19.88,1.2-.64,2.71-.81,1.79-2.94ZM34.72,57.83c-.92.49-2.36-.26-3.21-.67s1.46-3.16,1.46-3.16c1.39-.32,1.74-.19,1.74-.19,0,0,.67.13,1.38,1.77.71,1.63-.46,1.78-1.37,2.25Z"/>
    <path d="M34.72,57.83c-.92.49-2.36-.26-3.21-.67s1.46-3.16,1.46-3.16c1.39-.32,1.74-.19,1.74-.19,0,0,.67.13,1.38,1.77.71,1.63-.46,1.78-1.37,2.25Z" fill="#f393bd"/>
    <path d="M30.92,19.09s5.5,1.35,7.55,4.85" fill="none" stroke="#231f20" stroke-linecap="round" stroke-linejoin="round" stroke-width=".75"/>
    <path d="M40.06,26.79s1.36,2.48,1.45,5.71" fill="none" stroke="#231f20" stroke-linecap="round" stroke-linejoin="round" stroke-width=".75"/>
  </g>
  <g id="balloon-blue">
    <g>
      <g>
        <path d="M49.85,0s-16.15.48-16.09,20.27c.07,19.78,16.09,18.71,16.09,18.71,0,0,13.97-2.8,13.97-21.36S49.85,0,49.85,0ZM49.7,38.12h-.29c-2.46,0-14.72-.86-14.78-17.84-.06-18.67,14.62-19.37,15.23-19.4h.32c2.13,0,12.76.8,12.76,16.75,0,17.32-12.33,20.3-13.24,20.49Z"/>
        <path d="M62.94,17.63c0,17.32-12.33,20.3-13.24,20.49h-.29c-2.46,0-14.72-.86-14.78-17.84-.06-18.67,14.62-19.37,15.23-19.4h.32c2.13,0,12.76.8,12.76,16.75Z" fill="#50c4d8"/>
      </g>
      <path d="M49.24,41.64c-.31-2.32-1.13-2.71-1.13-2.71l-2.23-.39s-3.89,2.65-2.95,3.47c.93.8,2.48,2.26,3.79,1.98,1.32-.29,2.83-.04,2.52-2.34ZM46.56,43.35c-1.02.22-2.2-.89-2.91-1.51s2.26-2.65,2.26-2.65c1.42.07,1.73.29,1.73.29,0,0,.61.31.85,2.08.24,1.76-.92,1.59-1.92,1.79Z"/>
      <path d="M46.56,43.35c-1.02.22-2.2-.89-2.91-1.51s2.26-2.65,2.26-2.65c1.42.07,1.73.29,1.73.29,0,0,.61.31.85,2.08.24,1.76-.92,1.59-1.92,1.79Z" fill="#50c4d8"/>
    </g>
    <path d="M53.4,5.02s4.93,2.79,5.95,6.72" fill="none" stroke="#231f20" stroke-linecap="round" stroke-linejoin="round" stroke-width=".75"/>
    <path d="M60.11,14.92s.64,2.76-.15,5.89" fill="none" stroke="#231f20" stroke-linecap="round" stroke-linejoin="round" stroke-width=".75"/>
  </g>
  <g id="balloon-yellow">
    <path d="M73.93,30.4s-15.32-5.15-22.12,13.44c-6.79,18.58,8.61,23.13,8.61,23.13,0,0,14.07,2.22,20.51-15.2,6.44-17.42-6.99-21.37-6.99-21.37ZM60.59,66.1l-.27-.1c-2.31-.85-13.51-5.91-7.68-21.86,6.42-17.53,20.43-13.1,21.01-12.92l.3.11c1.99.74,11.69,5.17,6.16,20.13-6,16.24-18.61,14.77-19.52,14.63Z"/>
    <path d="M80.11,51.47c-6,16.24-18.61,14.77-19.52,14.63l-.27-.1c-2.31-.85-13.51-5.91-7.68-21.86,6.42-17.53,20.43-13.1,21.01-12.92l.3.11c1.99.74,11.69,5.17,6.16,20.13Z" fill="#f6f5b9"/>
    <path d="M58.93,69.24c.51-2.28-.12-2.93-.12-2.93l-1.96-1.14s-4.57,1.14-3.97,2.23c.6,1.08,1.54,2.98,2.87,3.17,1.34.19,2.67.94,3.18-1.32ZM55.83,69.92c-1.03-.15-1.76-1.6-2.21-2.43s3.04-1.7,3.04-1.7c1.31.56,1.52.87,1.52.87,0,0,.47.5.08,2.25-.39,1.74-1.41,1.17-2.43,1.01Z"/>
    <path d="M55.83,69.92c-1.03-.15-1.76-1.6-2.21-2.43s3.04-1.7,3.04-1.7c1.31.56,1.52.87,1.52.87,0,0,.47.5.08,2.25-.39,1.74-1.41,1.17-2.43,1.01Z" fill="#f6f5b9"/>
    <path d="M75.53,36.34s3.66,4.32,3.25,8.36" fill="none" stroke="#231f20" stroke-linecap="round" stroke-linejoin="round" stroke-width=".75"/>
    <path d="M78.4,47.94s-.36,2.81-2.18,5.47" fill="none" stroke="#231f20" stroke-linecap="round" stroke-linejoin="round" stroke-width=".75"/>
  </g>
  <path id="string" d="M55.25,69.74c-.08-.04-.17-.06-.25-.06-.22,0-.43.12-.53.33l-9.87,20.78,2.01-46.78c.01-.32-.23-.59-.56-.61,0,0-.02,0-.03,0-.31,0-.57.24-.58.56l-1.97,45.77-8.17-31.36c-.07-.26-.3-.44-.56-.44-.05,0-.1,0-.15.02-.31.08-.5.4-.42.71l9.15,35.11s0,0,0,.01c.03.11.09.2.18.27.02.02.03.03.05.04.02.02.04.04.07.05.08.04.17.06.25.06.02,0,.04,0,.06,0,.03,0,.04-.03.06-.03.09-.02.17-.06.24-.12.03-.03.06-.06.08-.09.02-.03.06-.05.07-.08l11.11-23.37c.14-.29.01-.64-.28-.78Z" fill="#231f20"/>
  <g id="feet">
    <path d="M32.36,121.93c-.04.36-.39.71-.95.93-.36.15-.6.52-.54.92.09.71-.09,1.3-.45,1.51-.12.06-.25.09-.39.09-.57,0-1.27-.44-1.81-1.12-.16-.22-.42-.34-.68-.34-.13,0-.26.03-.39.1-.17.09-.35.16-.55.23-.42.15-.86.22-1.28.22-.82,0-1.47-.31-1.62-.74-.15-.42.15-1.02.74-1.5.2-.17.32-.42.32-.68v-7.49c.89-.06,2.11-.22,3.5-.61v5.91c0,.23.1.47.29.64.16.15.36.23.58.23h.07c.12-.01.25-.01.36-.01.13,0,.25,0,.38.01.92.09,1.75.48,2.17,1,.13.16.28.41.25.68Z" fill="#f6861f"/>
    <path d="M20.43,124.03c-.15.26-.52.42-1.03.42-.15,0-.31-.01-.48-.04-.04-.01-.09-.01-.13-.01-.22,0-.41.07-.57.22-.2.19-.31.45-.31.73,0,.9-.28,1.62-.68,1.76-.06.01-.1.01-.16.01-.48,0-1.21-.6-1.69-1.75-.13-.35-.45-.57-.8-.57-.04,0-.1.01-.16.03-.28.04-.55.07-.82.07-.95,0-1.72-.38-1.83-.9-.13-.58.58-1.47,1.83-1.91.36-.12.61-.48.61-.89v-7.16c1.22.17,2.4.28,3.47.32v5.88c0,.38.22.73.55.86.19.09.38.19.58.31,1.3.8,1.92,2.05,1.62,2.62Z" fill="#f6861f"/>
  </g>
  <path id="bird-outline" d="M45.19,92.49c-.63-.51-1.49-.67-2.32-.67-.95,0-1.88.2-2.52.38-.32-7.7-2.36-13.06-6.1-15.87-2.17-1.63-4.47-2.07-6.16-2.11,1.25-.9,2.62-2.2,2.87-3.66.16-.9-.12-1.75-.83-2.49-.61-.66-1.33-.98-2.1-.98-.12,0-.22,0-.33.01-1,.12-1.97.76-2.78,1.54.26-1.14.31-2.24-.26-2.9-.32-.39-.79-.58-1.38-.58-.39,0-.84.09-1.35.26-4.38,1.46-5.27,5.13-5.45,6.35-13.86,5.53-12.64,20.72-12.36,23.04-1.05,1.19-1.94,2.77-1.83,4.62-.12.35-.54,1.73-.35,3.06-.6,1.88-1.72,2.99-1.73,3.01-.22.19-.25.52-.07.76,3.47,4.78,8.64,6.82,13.22,7.63v7.37c-1.62.54-2.68,1.79-2.43,2.96.28,1.21,1.89,1.86,3.67,1.5.67,1.57,1.88,2.55,2.91,2.21.83-.28,1.3-1.33,1.3-2.62,1.06.17,2-.09,2.39-.82.61-1.11-.25-2.83-1.92-3.83-.23-.15-.47-.26-.7-.35v-5.94c.19.01.35.01.52.01,2.4,0,4.03-.25,4.21-.28h.6v7.44c-.86.71-1.3,1.65-1.02,2.46.41,1.21,2.2,1.69,4,1.08.23-.09.47-.17.67-.29.98,1.25,2.36,1.81,3.32,1.25.71-.42,1-1.34.87-2.37.83-.33,1.41-.93,1.5-1.65.13-1.27-1.3-2.46-3.2-2.67-.31-.03-.6-.03-.9,0v-6.19c1.89-.64,3.98-1.75,5.87-3.55,1.81-1.76,3.15-3.96,4.05-6.58,1.17-.54,6.51-3.23,7.06-7.69.16-1.3-.15-2.27-.92-2.87ZM18.81,121.41c1.3.8,1.92,2.05,1.62,2.62-.15.26-.52.42-1.03.42-.15,0-.31-.01-.48-.04-.04-.01-.09-.01-.13-.01-.22,0-.41.07-.57.22-.2.19-.31.45-.31.73,0,.9-.28,1.62-.68,1.76-.06.01-.1.01-.16.01-.48,0-1.21-.6-1.69-1.75-.13-.35-.45-.57-.8-.57-.04,0-.1.01-.16.03-.28.04-.55.07-.82.07-.95,0-1.72-.38-1.83-.9-.13-.58.58-1.47,1.83-1.91.36-.12.61-.48.61-.89v-7.16c1.22.17,2.4.28,3.47.32v5.88c0,.38.22.73.55.86.19.09.38.19.58.31ZM29.2,120.24c.12-.01.25-.01.36-.01.13,0,.25,0,.38.01.92.09,1.75.48,2.17,1,.13.16.28.41.25.68-.04.36-.39.71-.95.93-.36.15-.6.52-.54.92.09.71-.09,1.3-.45,1.51-.12.06-.25.09-.39.09-.57,0-1.27-.44-1.81-1.12-.16-.22-.42-.34-.68-.34-.13,0-.26.03-.39.1-.17.09-.35.16-.55.23-.42.15-.86.22-1.28.22-.82,0-1.47-.31-1.62-.74-.15-.42.15-1.02.74-1.5.2-.17.32-.42.32-.68v-7.49c.89-.06,2.11-.22,3.5-.61v5.91c0,.23.1.47.29.64.16.15.36.23.58.23h.07ZM34.19,108.77c-1.6,1.54-3.39,2.53-5.07,3.15-1.02.38-2,.63-2.85.77-.57.1-1.08.17-1.51.2-.33.03-.64.04-.87.04-.16.01-.29.01-.39.01h-.26s-.42.07-1.12.13c-.68.06-1.66.12-2.84.12-.23,0-.47,0-.71-.01-.76-.01-1.6-.06-2.48-.13-4.78-.45-10.86-2.08-14.74-7.09.32-.36.8-1.03,1.22-1.91.03.03.03.04.04.07.54.58,1.31.87,2.32.87.58,0,1.24-.1,1.95-.29,6.5-1.7,6.74-7.44,6.76-7.5,0-.32-.25-.6-.57-.6h-.01c-.32,0-.58.25-.58.55-.01.2-.25,4.94-5.88,6.42-.51.13-1.11.25-1.65.25-.6,0-1.12-.13-1.47-.5-.17-.2-.28-.45-.35-.73.26-.89.41-1.94.31-3.1h0c0-.12-.01-.22-.01-.31,0-1.49.8-2.77,1.72-3.76.01-.03.03-.04.04-.06,1.19-1.27,2.55-2.05,2.58-2.05.28-.16.38-.52.22-.8-.1-.19-.31-.29-.51-.29-.09,0-.19.01-.28.07-.09.04-.99.55-2,1.44-.28-3.89-.15-16.37,12.03-21.03.22-.07.36-.29.38-.51,0-.17.22-4.19,4.69-5.68.39-.13.73-.2.99-.2.23,0,.41.06.5.17.63.73-.45,3.66-1.37,5.4-.15.29-.04.64.23.79.09.04.19.07.28.07.2,0,.41-.1.51-.29.63-1.11,2.65-4,4.41-4.22h.19c.47,0,.87.2,1.27.61.45.47.63.96.52,1.49-.31,1.75-3.28,3.58-4.41,4.15-.26.13-.38.44-.28.71.09.23.31.38.54.38.06,0,.1,0,.15-.01.01,0,.8-.19,1.95-.19,1.54,0,3.76.33,5.81,1.88,3.55,2.68,5.48,7.98,5.68,15.73.17,7.03-1.51,12.33-5.05,15.77ZM44.94,95.21c-.36,3.07-3.66,5.3-5.43,6.29.63-2.4.93-5.1.89-8.1.63-.19,1.6-.42,2.5-.42.61,0,1.18.12,1.56.41.44.35.6.95.48,1.82Z"/>
  <g id="bird">
    <path d="M44.46,93.39c-.38-.29-.95-.41-1.56-.41-.9,0-1.88.23-2.5.42.04,3-.26,5.69-.89,8.1,1.78-.99,5.07-3.22,5.43-6.29.12-.87-.04-1.47-.48-1.82Z" fill="#fff200"/>
    <path d="M33.56,77.27c-2.05-1.54-4.27-1.88-5.81-1.88-1.15,0-1.94.19-1.95.19-.04.01-.09.01-.15.01-.23,0-.45-.15-.54-.38-.1-.28.01-.58.28-.71,1.14-.57,4.11-2.4,4.41-4.15.1-.52-.07-1.02-.52-1.49-.39-.41-.8-.61-1.27-.61h-.19c-1.76.22-3.79,3.12-4.41,4.22-.1.19-.31.29-.51.29-.09,0-.19-.03-.28-.07-.28-.15-.38-.5-.23-.79.92-1.75,2-4.67,1.37-5.4-.09-.12-.26-.17-.5-.17-.26,0-.6.07-.99.2-4.47,1.49-4.69,5.5-4.69,5.68-.01.22-.16.44-.38.51-12.17,4.66-12.31,17.14-12.03,21.03,1-.89,1.91-1.4,2-1.44.09-.06.19-.07.28-.07.2,0,.41.1.51.29.16.28.06.64-.22.8-.03,0-1.38.79-2.58,2.05-.01.01-.03.03-.04.06-.92.99-1.72,2.27-1.72,3.76,0,.09.01.19.01.29h0c.1,1.18-.04,2.23-.31,3.12.07.28.17.52.35.73.35.36.87.5,1.47.5.54,0,1.14-.12,1.65-.25,5.64-1.49,5.87-6.22,5.88-6.42,0-.31.26-.55.58-.55h.01c.32,0,.57.28.57.6-.01.06-.26,5.8-6.76,7.5-.71.19-1.37.29-1.95.29-1,0-1.78-.29-2.32-.87-.01-.03-.01-.04-.04-.07-.42.87-.9,1.54-1.22,1.91,3.87,5.01,9.96,6.64,14.74,7.09.87.07,1.72.12,2.48.13.25.01.48.01.71.01,1.18,0,2.16-.06,2.84-.12.7-.06,1.11-.12,1.12-.13h.26c.1,0,.23,0,.39-.01.23,0,.54-.01.87-.04.44-.03.95-.1,1.51-.2.86-.15,1.83-.39,2.85-.77,1.67-.61,3.47-1.6,5.07-3.15,3.54-3.44,5.23-8.74,5.05-15.77-.2-7.75-2.13-13.05-5.68-15.73Z" fill="#fff200"/>
  </g>
  <g id="eyes">
    <circle cx="16.19" cy="86.75" r="2.82" fill="#231f20"/>
    <circle cx="31.54" cy="86.39" r="2.82" fill="#231f20"/>
  </g>
  <path id="beak-outline" d="M28.32,92.25c-.23-2.21-1.86-3.93-3.86-3.93s-3.68,1.79-3.86,4.08c-.01.12-.01.25-.01.38,0,.36.04.73.12,1.06.41,1.94,1.94,3.38,3.76,3.38s3.47-1.54,3.82-3.58c.04-.28.07-.57.07-.86,0-.17-.01-.35-.03-.52ZM24.46,95.55c-1.02,0-1.91-.73-2.26-1.76l4.56-.12c-.32,1.09-1.22,1.88-2.3,1.88ZM22.06,92.37c.17-1.35,1.18-2.39,2.4-2.39s2.2.99,2.4,2.3l-4.81.09Z" fill="#231f20"/>
  <path id="beek-top" d="M26.77,93.68c-.32,1.09-1.22,1.88-2.3,1.88-1.02,0-1.91-.73-2.26-1.76l4.56-.12Z" fill="#b28f87"/>
  <path id="beek-bottom" d="M26.87,92.28l-4.81.09c.17-1.35,1.18-2.39,2.4-2.39s2.2.99,2.4,2.3Z" fill="#815e66"/>
</svg>