<?xml version="1.0" encoding="UTF-8"?><svg id="Layer_1" xmlns="http://www.w3.org/2000/svg" width="491.78" height="90.14" viewBox="0 0 491.78 90.14"><g id="balloon-pink"><path d="M452.96,10.45s-10.59,3.32-6.86,16.39c3.73,13.06,14.12,9.37,14.12,9.37,0,0,8.71-4.45,5.26-16.72-3.46-12.27-12.51-9.05-12.51-9.05ZM459.96,35.67l-.19.05c-1.63.46-9.89,2.17-13.09-9.04-3.51-12.33,6.06-15.52,6.46-15.66l.21-.06c1.41-.4,8.58-1.84,11.55,8.7,3.22,11.45-4.38,15.71-4.94,16.01Z"/><path d="M464.9,19.66c3.22,11.45-4.38,15.71-4.94,16.01l-.19.05c-1.63.46-9.89,2.17-13.09-9.04-3.51-12.33,6.06-15.52,6.46-15.66l.21-.06c1.41-.4,8.58-1.84,11.55,8.7Z" fill="#f393bd"/><path d="M460.31,38.09c-.63-1.47-1.25-1.58-1.25-1.58l-1.55.16s-2.08,2.48-1.31,2.84c.77.36,2.06,1.03,2.87.6.82-.44,1.86-.56,1.23-2.02ZM458.86,39.71c-.63.33-1.62-.18-2.21-.46s1-2.17,1-2.17c.95-.22,1.2-.13,1.2-.13,0,0,.46.09.95,1.22.48,1.12-.31,1.22-.94,1.54Z"/><path d="M458.86,39.71c-.63.33-1.62-.18-2.21-.46s1-2.17,1-2.17c.95-.22,1.2-.13,1.2-.13,0,0,.46.09.95,1.22.48,1.12-.31,1.22-.94,1.54Z" fill="#f393bd"/><path d="M456.25,13.11s3.77.93,5.18,3.33" fill="none" stroke="#231f20" stroke-linecap="round" stroke-linejoin="round" stroke-width=".75"/><path d="M462.52,18.4s.93,1.71,1,3.92" fill="none" stroke="#231f20" stroke-linecap="round" stroke-linejoin="round" stroke-width=".75"/></g><g id="balloon-blue"><path d="M469.24,0s-11.09.33-11.05,13.92c.05,13.58,11.05,12.85,11.05,12.85,0,0,9.59-1.92,9.59-14.67S469.24,0,469.24,0ZM469.14,26.18h-.2c-1.69,0-10.11-.59-10.15-12.25-.04-12.82,10.04-13.3,10.46-13.32h.22c1.46,0,8.76.55,8.76,11.5,0,11.89-8.47,13.94-9.09,14.07Z"/><path d="M478.23,12.11c0,11.89-8.47,13.94-9.09,14.07h-.2c-1.69,0-10.11-.59-10.15-12.25-.04-12.82,10.04-13.3,10.46-13.32h.22c1.46,0,8.76.55,8.76,11.5Z" fill="#50c4d8"/><path d="M468.82,28.6c-.21-1.59-.78-1.86-.78-1.86l-1.53-.27s-2.67,1.82-2.03,2.38c.64.55,1.7,1.55,2.6,1.36.91-.2,1.94-.03,1.73-1.61ZM466.99,29.77c-.7.15-1.51-.61-2-1.04s1.55-1.82,1.55-1.82c.98.05,1.19.2,1.19.2,0,0,.42.21.58,1.43.16,1.21-.63,1.09-1.32,1.23Z"/><path d="M466.99,29.77c-.7.15-1.51-.61-2-1.04s1.55-1.82,1.55-1.82c.98.05,1.19.2,1.19.2,0,0,.42.21.58,1.43.16,1.21-.63,1.09-1.32,1.23Z" fill="#50c4d8"/><path d="M471.68,3.45s3.38,1.91,4.09,4.61" fill="none" stroke="#231f20" stroke-linecap="round" stroke-linejoin="round" stroke-width=".75"/><path d="M476.29,10.24s.44,1.9-.1,4.04" fill="none" stroke="#231f20" stroke-linecap="round" stroke-linejoin="round" stroke-width=".75"/></g><g id="balloon-yellow"><path d="M485.78,20.88s-10.52-3.53-15.19,9.23c-4.66,12.76,5.91,15.88,5.91,15.88,0,0,9.66,1.52,14.08-10.44,4.42-11.96-4.8-14.67-4.8-14.67ZM476.62,45.39l-.19-.07c-1.59-.59-9.28-4.06-5.27-15.01,4.41-12.04,14.03-9,14.43-8.87l.21.08c1.37.51,8.03,3.55,4.23,13.82-4.12,11.15-12.78,10.14-13.4,10.05Z"/><path d="M490.02,35.34c-4.12,11.15-12.78,10.14-13.4,10.05l-.19-.07c-1.59-.59-9.28-4.06-5.27-15.01,4.41-12.04,14.03-9,14.43-8.87l.21.08c1.37.51,8.03,3.55,4.23,13.82Z" fill="#f6f5b9"/><path d="M475.48,47.55c.35-1.56-.08-2.01-.08-2.01l-1.34-.78s-3.14.78-2.73,1.53c.41.74,1.06,2.04,1.97,2.18.92.13,1.83.65,2.18-.91ZM473.35,48.01c-.71-.1-1.21-1.1-1.52-1.67s2.09-1.17,2.09-1.17c.9.39,1.04.6,1.04.6,0,0,.32.34.05,1.54-.27,1.19-.97.8-1.67.7Z"/><path d="M473.35,48.01c-.71-.1-1.21-1.1-1.52-1.67s2.09-1.17,2.09-1.17c.9.39,1.04.6,1.04.6,0,0,.32.34.05,1.54-.27,1.19-.97.8-1.67.7Z" fill="#f6f5b9"/><path d="M486.88,24.95s2.51,2.97,2.23,5.74" fill="none" stroke="#231f20" stroke-linecap="round" stroke-linejoin="round" stroke-width=".75"/><path d="M488.85,32.92s-.25,1.93-1.5,3.76" fill="none" stroke="#231f20" stroke-linecap="round" stroke-linejoin="round" stroke-width=".75"/></g><g id="letters" ><polygon points="97.55 32.5 82.32 61.46 67.08 32.5 62.92 32.5 62.67 32.63 80.36 66.26 80.36 88.33 84.53 88.33 84.53 65.78 101.98 32.59 101.81 32.5 97.55 32.5"/><polygon points="314.88 79.27 282.22 32.56 282.07 32.35 278.04 32.35 278.04 88.18 282.22 88.18 282.22 39.48 314.88 86.18 316.28 88.18 319.05 88.18 319.05 32.35 314.88 32.35 314.88 79.27"/><polygon points="423.46 32.5 423.46 58.05 393.22 58.05 393.22 32.5 389.04 32.5 389.04 88.33 393.22 88.33 393.22 62.22 423.46 62.22 423.46 88.33 427.63 88.33 427.63 32.5 423.46 32.5"/><path d="M142.4,63.16h.52s11.28-1.56,11.28-15.12-13.11-15.54-13.11-15.54h-17v55.83h4.17v-24.11h10.13l15.34,24.11h4.69l-15.5-24.35-.52-.82ZM128.26,60.26v-24.13h11.41s10.42,1.21,10.42,12.25-9.53,11.88-9.53,11.88h-12.3Z"/><path d="M231.32,69.19l-13.36-36.1-.13-.36-.09-.23h-3.79l-.09.23-.13.36-13.35,36.1-1.47,3.96-5.61,15.18h4.23l5.61-15.18h25.41l5.62,15.18h4.23l-5.61-15.18-1.47-3.96ZM204.61,69.19l11.24-30.38,11.24,30.38h-22.48Z"/><polygon points="25.05 73.29 6.04 32.5 0 32.5 0 88.33 4.17 88.33 4.17 37.86 22.86 77.99 23.99 80.42 24.37 81.23 25.72 81.23 26.1 80.42 27.23 77.99 45.55 38.66 45.55 88.33 49.73 88.33 49.73 32.5 44.05 32.5 25.05 73.29"/><path d="M331.15,60.16c0,15.36,9.25,27.81,26.19,27.81,6.54,0,12.54-2.36,17.23-6.29v-4.87c-4.31,4.67-10.41,7.58-17.19,7.58-14.1,0-21.82-10.85-21.82-24.23s7.97-24.52,21.82-24.23c6.77.15,12.88,3.05,17.19,7.67v-4.96c-4.69-3.93-10.69-6.29-17.23-6.29-17.56,0-26.19,12.45-26.19,27.81Z"/><path d="M190.7,46.03c-5.4.1-10.8.08-16.19,0-1.83-.03-2.44.66-2.42,2.47.07,6.7.06,13.4-.01,20.09-.02,1.74.47,2.58,2.34,2.55,5.5-.06,11-.06,16.49,0,1.68.02,2.33-.67,2.3-2.32-.06-3.3-.02-6.6-.02-9.9,0-3.4-.07-6.8.03-10.2.05-1.87-.47-2.74-2.52-2.7ZM190.15,48.12c-2.67,3.24-5,6.06-7.53,9.12-2.54-3.09-4.87-5.92-7.5-9.12h15.04ZM173.94,67.69v-17.99c2.65,3.16,4.97,5.93,7.5,8.96-2.5,3.02-4.82,5.8-7.5,9.03ZM175.19,69.2c2.61-3.19,4.88-5.97,7.39-9.05,2.48,2.97,4.8,5.74,7.56,9.05h-14.95ZM191.31,67.72c-2.72-3.26-5.01-6.01-7.5-9,2.35-2.86,4.64-5.64,7.5-9.12v18.12Z"/><path d="M256.04,71.15c1.68.02,2.33-.67,2.3-2.32-.06-3.3-.02-6.6-.02-9.9,0-3.4-.07-6.8.03-10.2.05-1.87-.47-2.74-2.52-2.7-5.4.1-10.8.08-16.19,0-1.83-.03-2.44.66-2.42,2.47.07,6.7.06,13.4-.01,20.09-.02,1.74.47,2.58,2.34,2.55,5.5-.06,11-.06,16.49,0ZM256.44,49.6v18.12c-2.72-3.26-5.01-6.01-7.5-9,2.35-2.86,4.64-5.64,7.5-9.12ZM255.28,48.12c-2.67,3.24-5,6.06-7.53,9.12-2.54-3.09-4.87-5.92-7.5-9.12h15.04ZM239.07,67.69v-17.99c2.65,3.16,4.97,5.93,7.5,8.96-2.5,3.02-4.82,5.8-7.5,9.03ZM247.71,60.15c2.48,2.97,4.8,5.74,7.56,9.05h-14.95c2.61-3.19,4.88-5.97,7.39-9.05Z"/><path d="M253.63,17.08c-.23-.34-.57-.61-.96-.75l-36.04-13.22c-.16-.06-.32-.09-.48-.1-.08-.01-.16-.02-.25-.02s-.18.01-.26.02c-.16.01-.32.04-.48.1l-36.04,13.22c-.39.14-.73.41-.96.75l-17.65,26.2c-.62.91-.39,2.16.52,2.78.35.24.74.35,1.13.35.64,0,1.27-.3,1.65-.87l17.29-25.67,34.44-12.64c.24-.09.49-.09.73,0l34.43,12.64,17.29,25.67c.39.57,1.01.87,1.65.87.39,0,.78-.11,1.13-.35.91-.62,1.14-1.87.52-2.78l-17.65-26.2Z"/><path d="M249.65,23.41c-.11-.16-.28-.29-.47-.37l-32.9-12.66s-.09-.03-.13-.03c-.05-.01-.09-.02-.14-.03-.09-.01-.17-.01-.26,0-.04.01-.09.02-.13.03-.05,0-.09.01-.13.03l-32.91,12.66c-.19.08-.35.21-.46.37l-15.45,22.73c-.11.16-.17.36-.17.56v42.44c0,.56.45,1,1,1h17.39c.55,0,1-.44,1-1s-.45-1-1-1h-16.39v-41.13l15.09-22.21,32.04-12.33c.16-.06.34-.06.5,0l32.04,12.33,15.1,22.21v41.13h-16.39c-.55,0-1,.45-1,1s.45,1,1,1h17.39c.55,0,1-.44,1-1v-42.44c0-.2-.06-.4-.18-.56l-15.44-22.73Z"/></g><path id="string" d="M472.95,47.89c-.06-.03-.11-.04-.17-.04-.15,0-.29.08-.36.23l-6.78,14.27,1.38-32.12c0-.22-.16-.41-.38-.42,0,0-.01,0-.02,0-.21,0-.39.17-.4.38l-1.35,31.43-5.61-21.53c-.05-.18-.21-.3-.39-.3-.03,0-.07,0-.1.01-.21.06-.34.27-.29.49l6.28,24.11s0,0,0,0c.02.07.06.14.12.19.01.01.02.02.04.03.02.01.03.03.05.04.06.03.11.04.17.04.01,0,.03,0,.04,0,.02,0,.03-.02.04-.02.06-.01.12-.04.17-.08.02-.02.04-.04.06-.06.02-.02.04-.03.05-.06l7.63-16.05c.09-.2,0-.44-.19-.53Z" fill="#231f20"/><g id="feet"><path d="M457.23,83.73c-.03.25-.27.49-.65.64-.25.1-.41.36-.37.63.06.49-.06.89-.31,1.04-.08.04-.17.06-.27.06-.39,0-.87-.3-1.24-.77-.11-.15-.29-.23-.47-.23-.09,0-.18.02-.27.07-.12.06-.24.11-.38.16-.29.1-.59.15-.88.15-.56,0-1.01-.21-1.11-.51-.1-.29.1-.7.51-1.03.14-.12.22-.29.22-.47v-5.14c.61-.04,1.45-.15,2.4-.42v4.06c0,.16.07.32.2.44.11.1.25.16.4.16h.05c.08-.01.17-.01.25-.01.09,0,.17,0,.26.01.63.06,1.2.33,1.49.69.09.11.19.28.17.47Z" fill="#f6861f"/><path d="M449.04,85.17c-.1.18-.36.29-.71.29-.1,0-.21-.01-.33-.03-.03-.01-.06-.01-.09-.01-.15,0-.28.05-.39.15-.14.13-.21.31-.21.5,0,.62-.19,1.11-.47,1.21-.04.01-.07.01-.11.01-.33,0-.83-.41-1.16-1.2-.09-.24-.31-.39-.55-.39-.03,0-.07.01-.11.02-.19.03-.38.05-.56.05-.65,0-1.18-.26-1.26-.62-.09-.4.4-1.01,1.26-1.31.25-.08.42-.33.42-.61v-4.92c.84.12,1.65.19,2.38.22v4.04c0,.26.15.5.38.59.13.06.26.13.4.21.89.55,1.32,1.41,1.11,1.8Z" fill="#f6861f"/></g><path id="bird-outline" d="M466.04,63.51c-.43-.35-1.02-.46-1.59-.46-.65,0-1.29.14-1.73.26-.22-5.29-1.62-8.97-4.19-10.9-1.49-1.12-3.07-1.42-4.23-1.45.86-.62,1.8-1.51,1.97-2.51.11-.62-.08-1.2-.57-1.71-.42-.45-.91-.67-1.44-.67-.08,0-.15,0-.23.01-.69.08-1.35.52-1.91,1.06.18-.78.21-1.54-.18-1.99-.22-.27-.54-.4-.95-.4-.27,0-.58.06-.93.18-3.01,1-3.62,3.52-3.74,4.36-9.52,3.8-8.68,14.23-8.49,15.82-.72.82-1.33,1.9-1.26,3.17-.08.24-.37,1.19-.24,2.1-.41,1.29-1.18,2.05-1.19,2.07-.15.13-.17.36-.05.52,2.38,3.28,5.93,4.68,9.08,5.24v5.06c-1.11.37-1.84,1.23-1.67,2.03.19.83,1.3,1.28,2.52,1.03.46,1.08,1.29,1.75,2,1.52.57-.19.89-.91.89-1.8.73.12,1.37-.06,1.64-.56.42-.76-.17-1.94-1.32-2.63-.16-.1-.32-.18-.48-.24v-4.08c.13.01.24.01.36.01,1.65,0,2.77-.17,2.89-.19h.41v5.11c-.59.49-.89,1.13-.7,1.69.28.83,1.51,1.16,2.75.74.16-.06.32-.12.46-.2.67.86,1.62,1.24,2.28.86.49-.29.69-.92.6-1.63.57-.23.97-.64,1.03-1.13.09-.87-.89-1.69-2.2-1.83-.21-.02-.41-.02-.62,0v-4.25c1.3-.44,2.73-1.2,4.03-2.44,1.24-1.21,2.16-2.72,2.78-4.52.8-.37,4.47-2.22,4.85-5.28.11-.89-.1-1.56-.63-1.97ZM447.93,83.37c.89.55,1.32,1.41,1.11,1.8-.1.18-.36.29-.71.29-.1,0-.21-.01-.33-.03-.03-.01-.06-.01-.09-.01-.15,0-.28.05-.39.15-.14.13-.21.31-.21.5,0,.62-.19,1.11-.47,1.21-.04.01-.07.01-.11.01-.33,0-.83-.41-1.16-1.2-.09-.24-.31-.39-.55-.39-.03,0-.07.01-.11.02-.19.03-.38.05-.56.05-.65,0-1.18-.26-1.26-.62-.09-.4.4-1.01,1.26-1.31.25-.08.42-.33.42-.61v-4.92c.84.12,1.65.19,2.38.22v4.04c0,.26.15.5.38.59.13.06.26.13.4.21ZM455.06,82.57c.08-.01.17-.01.25-.01.09,0,.17,0,.26.01.63.06,1.2.33,1.49.69.09.11.19.28.17.47-.03.25-.27.49-.65.64-.25.1-.41.36-.37.63.06.49-.06.89-.31,1.04-.08.04-.17.06-.27.06-.39,0-.87-.3-1.24-.77-.11-.15-.29-.23-.47-.23-.09,0-.18.02-.27.07-.12.06-.24.11-.38.16-.29.1-.59.15-.88.15-.56,0-1.01-.21-1.11-.51-.1-.29.1-.7.51-1.03.14-.12.22-.29.22-.47v-5.14c.61-.04,1.45-.15,2.4-.42v4.06c0,.16.07.32.2.44.11.1.25.16.4.16h.05ZM458.49,74.69c-1.1,1.06-2.33,1.74-3.48,2.16-.7.26-1.37.43-1.96.53-.39.07-.74.12-1.04.14-.23.02-.44.03-.6.03-.11.01-.2.01-.27.01h-.18s-.29.05-.77.09c-.47.04-1.14.08-1.95.08-.16,0-.32,0-.49-.01-.52,0-1.1-.04-1.7-.09-3.28-.31-7.46-1.43-10.12-4.87.22-.25.55-.71.84-1.31.02.02.02.03.03.05.37.4.9.6,1.59.6.4,0,.85-.07,1.34-.2,4.46-1.17,4.63-5.11,4.64-5.15,0-.22-.17-.41-.39-.41h-.01c-.22,0-.4.17-.4.38-.01.14-.17,3.39-4.04,4.41-.35.09-.76.17-1.13.17-.41,0-.77-.09-1.01-.34-.12-.14-.19-.31-.24-.5.18-.61.28-1.33.21-2.13h0c0-.08,0-.15,0-.21,0-1.02.55-1.9,1.18-2.58.01-.02.02-.03.03-.04.82-.87,1.75-1.41,1.77-1.41.19-.11.26-.36.15-.55-.07-.13-.21-.2-.35-.2-.06,0-.13.01-.19.05-.06.03-.68.38-1.37.99-.19-2.67-.1-11.24,8.26-14.44.15-.05.25-.2.26-.35,0-.12.15-2.88,3.22-3.9.27-.09.5-.14.68-.14.16,0,.28.04.34.12.43.5-.31,2.51-.94,3.71-.1.2-.03.44.16.54.06.03.13.05.19.05.14,0,.28-.07.35-.2.43-.76,1.82-2.75,3.03-2.9h.13c.32,0,.6.14.87.42.31.32.43.66.36,1.02-.21,1.2-2.25,2.46-3.03,2.85-.18.09-.26.3-.19.49.06.16.21.26.37.26.04,0,.07,0,.1-.01,0,0,.55-.13,1.34-.13,1.06,0,2.58.23,3.99,1.29,2.44,1.84,3.76,5.48,3.9,10.8.12,4.83-1.04,8.47-3.47,10.83ZM465.87,65.38c-.25,2.11-2.51,3.64-3.73,4.32.43-1.65.64-3.5.61-5.56.43-.13,1.1-.29,1.72-.29.42,0,.81.08,1.07.28.3.24.41.65.33,1.25Z"/><g id="bird"><path d="M465.54,64.13c-.26-.2-.65-.28-1.07-.28-.62,0-1.29.16-1.72.29.03,2.06-.18,3.91-.61,5.56,1.22-.68,3.48-2.21,3.73-4.32.08-.6-.03-1.01-.33-1.25Z" fill="#fff200"/><path d="M458.06,53.06c-1.41-1.06-2.93-1.29-3.99-1.29-.79,0-1.33.13-1.34.13-.03.01-.06.01-.1.01-.16,0-.31-.1-.37-.26-.07-.19.01-.4.19-.49.78-.39,2.82-1.65,3.03-2.85.07-.36-.05-.7-.36-1.02-.27-.28-.55-.42-.87-.42h-.13c-1.21.15-2.6,2.14-3.03,2.9-.07.13-.21.2-.35.2-.06,0-.13-.02-.19-.05-.19-.1-.26-.34-.16-.54.63-1.2,1.37-3.21.94-3.71-.06-.08-.18-.12-.34-.12-.18,0-.41.05-.68.14-3.07,1.02-3.22,3.78-3.22,3.9-.01.15-.11.3-.26.35-8.36,3.2-8.45,11.77-8.26,14.44.69-.61,1.31-.96,1.37-.99.06-.04.13-.05.19-.05.14,0,.28.07.35.2.11.19.04.44-.15.55-.02,0-.95.54-1.77,1.41-.01.01-.02.02-.03.04-.63.68-1.18,1.56-1.18,2.58,0,.06,0,.13,0,.2h0c.07.81-.03,1.53-.21,2.14.05.19.12.36.24.5.24.25.6.34,1.01.34.37,0,.78-.08,1.13-.17,3.87-1.02,4.03-4.27,4.04-4.41,0-.21.18-.38.4-.38h.01c.22,0,.39.19.39.41-.01.04-.18,3.98-4.64,5.15-.49.13-.94.2-1.34.2-.69,0-1.22-.2-1.59-.6,0-.02,0-.03-.03-.05-.29.6-.62,1.06-.84,1.31,2.66,3.44,6.84,4.56,10.12,4.87.6.05,1.18.08,1.7.09.17.01.33.01.49.01.81,0,1.48-.04,1.95-.08.48-.04.76-.08.77-.09h.18c.07,0,.16,0,.27-.01.16,0,.37-.01.6-.03.3-.02.65-.07,1.04-.14.59-.1,1.26-.27,1.96-.53,1.15-.42,2.38-1.1,3.48-2.16,2.43-2.36,3.59-6,3.47-10.83-.14-5.32-1.46-8.96-3.9-10.8Z" fill="#fff200"/></g><g id="eyes"><circle cx="446.13" cy="59.57" r="1.94" fill="#231f20"/><circle cx="456.67" cy="59.32" r="1.94" fill="#231f20"/></g><path id="beak-outline" d="M454.46,63.34c-.16-1.52-1.28-2.7-2.65-2.7s-2.53,1.23-2.65,2.8c0,.08,0,.17,0,.26,0,.25.03.5.08.73.28,1.33,1.33,2.32,2.58,2.32s2.38-1.06,2.62-2.46c.03-.19.05-.39.05-.59,0-.12-.01-.24-.02-.36ZM451.81,65.61c-.7,0-1.31-.5-1.55-1.21l3.13-.08c-.22.75-.84,1.29-1.58,1.29ZM450.16,63.42c.12-.93.81-1.64,1.65-1.64s1.51.68,1.65,1.58l-3.3.06Z" fill="#231f20"/><path id="beek-top" d="M453.39,64.32c-.22.75-.84,1.29-1.58,1.29-.7,0-1.31-.5-1.55-1.21l3.13-.08Z" fill="#b28f87"/><path id="beek-bottom" d="M453.46,63.36l-3.3.06c.12-.93.81-1.64,1.65-1.64s1.51.68,1.65,1.58Z" fill="#815e66"/></svg>